<svg id="visual" viewBox="0 0 900 600" width="900" height="600" xmlns="http://www.w3.org/2000/svg" xmlns:xlink="http://www.w3.org/1999/xlink" version="1.1"><g stroke-width="1" stroke-linejoin="bevel"><path d="M460 279L378 239L401 334Z" fill="#0c2435" stroke="#0c2435"></path><path d="M319 293L376 360L401 334Z" fill="#205a7a" stroke="#205a7a"></path><path d="M575 267L532 223L460 279Z" fill="#00101c" stroke="#00101c"></path><path d="M378 239L319 293L401 334Z" fill="#277297" stroke="#277297"></path><path d="M378 239L336 222L319 293Z" fill="#00101c" stroke="#00101c"></path><path d="M532 386L460 279L401 334Z" fill="#15384f" stroke="#15384f"></path><path d="M460 279L532 223L378 239Z" fill="#297ea6" stroke="#297ea6"></path><path d="M378 239L378 122L336 222Z" fill="#246688" stroke="#246688"></path><path d="M376 360L532 386L401 334Z" fill="#112e42" stroke="#112e42"></path><path d="M532 223L378 122L378 239Z" fill="#19435d" stroke="#19435d"></path><path d="M532 386L575 267L460 279Z" fill="#081a28" stroke="#081a28"></path><path d="M319 293L281 423L376 360Z" fill="#081a28" stroke="#081a28"></path><path d="M376 360L532 473L532 386Z" fill="#0c2435" stroke="#0c2435"></path><path d="M203 325L281 423L319 293Z" fill="#00101c" stroke="#00101c"></path><path d="M192 205L319 293L336 222Z" fill="#00101c" stroke="#00101c"></path><path d="M192 205L203 325L319 293Z" fill="#19435d" stroke="#19435d"></path><path d="M209 515L326 482L281 423Z" fill="#1d4e6b" stroke="#1d4e6b"></path><path d="M281 423L326 482L376 360Z" fill="#112e42" stroke="#112e42"></path><path d="M575 267L607 180L532 223Z" fill="#1d4e6b" stroke="#1d4e6b"></path><path d="M532 223L516 65L378 122Z" fill="#246688" stroke="#246688"></path><path d="M686 206L607 180L575 267Z" fill="#0c2435" stroke="#0c2435"></path><path d="M396 525L532 473L376 360Z" fill="#081a28" stroke="#081a28"></path><path d="M532 386L607 393L575 267Z" fill="#19435d" stroke="#19435d"></path><path d="M578 480L607 393L532 386Z" fill="#205a7a" stroke="#205a7a"></path><path d="M294 78L192 205L336 222Z" fill="#246688" stroke="#246688"></path><path d="M406 0L294 78L378 122Z" fill="#00101c" stroke="#00101c"></path><path d="M378 122L294 78L336 222Z" fill="#1d4e6b" stroke="#1d4e6b"></path><path d="M573 102L516 65L532 223Z" fill="#19435d" stroke="#19435d"></path><path d="M326 482L396 525L376 360Z" fill="#112e42" stroke="#112e42"></path><path d="M607 180L573 102L532 223Z" fill="#15384f" stroke="#15384f"></path><path d="M513 600L578 480L532 473Z" fill="#277297" stroke="#277297"></path><path d="M532 473L578 480L532 386Z" fill="#297ea6" stroke="#297ea6"></path><path d="M133 465L193 438L66 374Z" fill="#0c2435" stroke="#0c2435"></path><path d="M203 325L193 438L281 423Z" fill="#205a7a" stroke="#205a7a"></path><path d="M284 600L405 600L396 525Z" fill="#205a7a" stroke="#205a7a"></path><path d="M294 78L184 111L192 205Z" fill="#0c2435" stroke="#0c2435"></path><path d="M66 374L193 438L203 325Z" fill="#00101c" stroke="#00101c"></path><path d="M516 65L406 0L378 122Z" fill="#0c2435" stroke="#0c2435"></path><path d="M294 78L223 0L184 111Z" fill="#19435d" stroke="#19435d"></path><path d="M698 337L575 267L607 393Z" fill="#246688" stroke="#246688"></path><path d="M698 337L686 206L575 267Z" fill="#277297" stroke="#277297"></path><path d="M607 180L705 131L573 102Z" fill="#1d4e6b" stroke="#1d4e6b"></path><path d="M688 383L698 337L607 393Z" fill="#277297" stroke="#277297"></path><path d="M625 0L502 0L516 65Z" fill="#277297" stroke="#277297"></path><path d="M516 65L502 0L406 0Z" fill="#081a28" stroke="#081a28"></path><path d="M625 0L516 65L573 102Z" fill="#297ea6" stroke="#297ea6"></path><path d="M708 519L688 383L607 393Z" fill="#00101c" stroke="#00101c"></path><path d="M193 438L209 515L281 423Z" fill="#00101c" stroke="#00101c"></path><path d="M406 0L280 0L294 78Z" fill="#205a7a" stroke="#205a7a"></path><path d="M284 600L396 525L326 482Z" fill="#19435d" stroke="#19435d"></path><path d="M396 525L513 600L532 473Z" fill="#00101c" stroke="#00101c"></path><path d="M75 290L203 325L192 205Z" fill="#205a7a" stroke="#205a7a"></path><path d="M193 438L133 465L209 515Z" fill="#277297" stroke="#277297"></path><path d="M67 177L75 290L192 205Z" fill="#205a7a" stroke="#205a7a"></path><path d="M763 123L705 131L686 206Z" fill="#15384f" stroke="#15384f"></path><path d="M686 206L705 131L607 180Z" fill="#112e42" stroke="#112e42"></path><path d="M405 600L513 600L396 525Z" fill="#00101c" stroke="#00101c"></path><path d="M578 480L708 519L607 393Z" fill="#277297" stroke="#277297"></path><path d="M280 0L223 0L294 78Z" fill="#205a7a" stroke="#205a7a"></path><path d="M184 111L67 177L192 205Z" fill="#1d4e6b" stroke="#1d4e6b"></path><path d="M189 600L284 600L209 515Z" fill="#297ea6" stroke="#297ea6"></path><path d="M209 515L284 600L326 482Z" fill="#19435d" stroke="#19435d"></path><path d="M770 415L760 281L698 337Z" fill="#19435d" stroke="#19435d"></path><path d="M698 337L760 281L686 206Z" fill="#246688" stroke="#246688"></path><path d="M75 290L66 374L203 325Z" fill="#246688" stroke="#246688"></path><path d="M705 131L625 0L573 102Z" fill="#19435d" stroke="#19435d"></path><path d="M75 91L67 177L184 111Z" fill="#205a7a" stroke="#205a7a"></path><path d="M75 290L0 362L66 374Z" fill="#297ea6" stroke="#297ea6"></path><path d="M513 600L581 600L578 480Z" fill="#081a28" stroke="#081a28"></path><path d="M688 383L770 415L698 337Z" fill="#00101c" stroke="#00101c"></path><path d="M581 600L708 519L578 480Z" fill="#1d4e6b" stroke="#1d4e6b"></path><path d="M67 0L75 91L184 111Z" fill="#112e42" stroke="#112e42"></path><path d="M708 519L770 415L688 383Z" fill="#297ea6" stroke="#297ea6"></path><path d="M133 465L189 600L209 515Z" fill="#00101c" stroke="#00101c"></path><path d="M72 600L189 600L133 465Z" fill="#081a28" stroke="#081a28"></path><path d="M821 237L763 123L686 206Z" fill="#277297" stroke="#277297"></path><path d="M705 131L685 0L625 0Z" fill="#277297" stroke="#277297"></path><path d="M821 237L686 206L760 281Z" fill="#0c2435" stroke="#0c2435"></path><path d="M763 123L685 0L705 131Z" fill="#277297" stroke="#277297"></path><path d="M0 187L0 268L67 177Z" fill="#246688" stroke="#246688"></path><path d="M67 177L0 268L75 290Z" fill="#297ea6" stroke="#297ea6"></path><path d="M66 374L0 531L133 465Z" fill="#0c2435" stroke="#0c2435"></path><path d="M0 268L0 362L75 290Z" fill="#205a7a" stroke="#205a7a"></path><path d="M900 278L821 237L760 281Z" fill="#081a28" stroke="#081a28"></path><path d="M75 91L0 187L67 177Z" fill="#112e42" stroke="#112e42"></path><path d="M708 519L795 524L770 415Z" fill="#00101c" stroke="#00101c"></path><path d="M581 600L704 600L708 519Z" fill="#297ea6" stroke="#297ea6"></path><path d="M223 0L67 0L184 111Z" fill="#112e42" stroke="#112e42"></path><path d="M75 91L0 63L0 187Z" fill="#1d4e6b" stroke="#1d4e6b"></path><path d="M900 0L766 0L763 123Z" fill="#19435d" stroke="#19435d"></path><path d="M763 123L766 0L685 0Z" fill="#081a28" stroke="#081a28"></path><path d="M704 600L795 524L708 519Z" fill="#19435d" stroke="#19435d"></path><path d="M900 403L900 278L760 281Z" fill="#112e42" stroke="#112e42"></path><path d="M0 531L72 600L133 465Z" fill="#19435d" stroke="#19435d"></path><path d="M67 0L0 63L75 91Z" fill="#277297" stroke="#277297"></path><path d="M0 362L0 531L66 374Z" fill="#00101c" stroke="#00101c"></path><path d="M900 403L760 281L770 415Z" fill="#205a7a" stroke="#205a7a"></path><path d="M821 237L900 131L763 123Z" fill="#1d4e6b" stroke="#1d4e6b"></path><path d="M900 278L900 229L821 237Z" fill="#277297" stroke="#277297"></path><path d="M67 0L0 0L0 63Z" fill="#246688" stroke="#246688"></path><path d="M900 483L900 403L770 415Z" fill="#00101c" stroke="#00101c"></path><path d="M704 600L811 600L795 524Z" fill="#00101c" stroke="#00101c"></path><path d="M795 524L900 483L770 415Z" fill="#277297" stroke="#277297"></path><path d="M900 229L900 131L821 237Z" fill="#0c2435" stroke="#0c2435"></path><path d="M0 531L0 600L72 600Z" fill="#246688" stroke="#246688"></path><path d="M900 600L900 483L795 524Z" fill="#205a7a" stroke="#205a7a"></path><path d="M900 131L900 0L763 123Z" fill="#081a28" stroke="#081a28"></path><path d="M811 600L900 600L795 524Z" fill="#15384f" stroke="#15384f"></path></g></svg>